PathFileType	4	(X/Y/Z)	C:/Users/opensim2020/Desktop/walking_exp_matlab/subject06_walking12_straigt_03.trc																																																																																																																																														
DataRate	CameraRate	NumFrames	NumMarkers	Units	OrigDataRate	OrigDataStartFrame	OrigNumFrames																																																																																																																																										
100	100	4	48	mm	100	2164	184																																																																																																																																										
Frame#	Time	LFHD			RFHD			LBHD			RBHD			C7			T10			CLAV			STRN			RBAK			LSHO			LUPA			LELB			LFRM			LWRA			LWRB			LFIN			RSHO			RUPA			RELB			RFRM			RWRA			RWRB			RFIN			LASI			RASI			LPSI			RPSI			LTHI			LKNE			LTIB			LANK			LHEE			LTOE			RTHI			RKNE			RTIB			RANK			RHEE			RTOE			*39			*40			*41			*42			*43			*44			*45			*46			*47		
		X1	Y1	Z1	X2	Y2	Z2	X3	Y3	Z3	X4	Y4	Z4	X5	Y5	Z5	X6	Y6	Z6	X7	Y7	Z7	X8	Y8	Z8	X9	Y9	Z9	X10	Y10	Z10	X11	Y11	Z11	X12	Y12	Z12	X13	Y13	Z13	X14	Y14	Z14	X15	Y15	Z15	X16	Y16	Z16	X17	Y17	Z17	X18	Y18	Z18	X19	Y19	Z19	X20	Y20	Z20	X21	Y21	Z21	X22	Y22	Z22	X23	Y23	Z23	X24	Y24	Z24	X25	Y25	Z25	X26	Y26	Z26	X27	Y27	Z27	X28	Y28	Z28	X29	Y29	Z29	X30	Y30	Z30	X31	Y31	Z31	X32	Y32	Z32	X33	Y33	Z33	X34	Y34	Z34	X35	Y35	Z35	X36	Y36	Z36	X37	Y37	Z37	X38	Y38	Z38	X39	Y39	Z39	X40	Y40	Z40	X41	Y41	Z41	X42	Y42	Z42	X43	Y43	Z43	X44	Y44	Z44	X45	Y45	Z45	X46	Y46	Z46	X47	Y47	Z47	X48	Y48	Z48
																																																																																																																																																	
93	0.92	145.73399	1647.34668	-1069.96997	138.16228	1634.51758	-938.63434	12.01542	1597.00415	-1079.13245	6.1287	1589.09766	-950.08453	3.64446	1437.83508	-1017.0777	-37.08107	1109.11829	-1004.63727	112.06912	1357.36804	-1018.94489	148.32707	1182.59583	-1022.21399	-70.62229	1270.85486	-929.07813	49.40006	1388.74915	-1179.13672	-1.76299	1192.87195	-1243.20862	-37.08216	1085.40747	-1248.49573	-54.14211	934.72223	-1264.2572	-29.6986	809.80402	-1214.69727	-86.5872	820.44855	-1256.93408	-73.39214	730.23407	-1248.65833	73.67036	1393.92688	-856.91876	50.01985	1196.65698	-763.72913	73.4249	1078.09851	-747.57983	125.29304	970.56879	-732.82654	228.7383	865.77307	-770.9502	179.86765	845.06097	-730.85431	243.06467	791.81018	-728.90991	151.89877	956.86078	-1111.12634	135.4986	950.0426	-893.52094	-10.45881	977.87354	-1092.08508	-14.5229	972.85754	-925.0072	136.00763	646.49188	-1183.98901	175.16678	488.87665	-1158.71753	183.75777	230.60715	-1145.78174	211.29808	62.00196	-1099.70959	176.64133	47.52101	-1050.20398	359.32159	37.48867	-1101.95776	60.77396	613.55792	-832.06177	54.85596	485.83804	-840.18286	-138.66832	300.40024	-850.35327	-270.6571	172.43925	-896.01038	-309.21521	181.56076	-945.82422	-197.25705	38.33441	-886.65643	43.84155	1687.99963	-1016.04108	NaN	NaN	NaN	NaN	NaN	NaN	NaN	NaN	NaN	NaN	NaN	NaN	NaN	NaN	NaN	NaN	NaN	NaN	NaN	NaN	NaN	NaN	NaN	NaN
94	0.93	156.19075	1648.75647	-1071.46033	148.45175	1636.19458	-940.16016	22.30721	1598.8457	-1080.62085	16.21107	1591.22351	-951.64478	13.73776	1439.17993	-1018.55023	-26.47287	1110.96704	-1006.64984	122.49504	1359.24072	-1020.14209	159.24864	1184.63562	-1023.45105	-60.16189	1272.69897	-930.35852	60.28666	1391.09045	-1180.26978	11.68072	1194.71362	-1245.22766	-22.11488	1086.96545	-1251.11536	-36.81401	936.14502	-1267.46179	-10.86102	811.42542	-1217.71167	-67.35983	821.25531	-1260.61877	-52.81524	731.13959	-1252.22131	83.44364	1396.04321	-858.68665	59.73767	1198.85657	-765.71747	81.62235	1079.86316	-750.64453	131.19269	971.13263	-735.62756	232.18726	863.38965	-773.25787	182.40685	844.19098	-733.00977	244.39235	788.97272	-731.18268	162.50502	959.16602	-1113.3623	145.51196	951.78687	-895.97614	0.57192	980.08588	-1094.25623	-4.26612	974.16962	-927.4054	143.64211	647.5824	-1185.58862	179.8029	488.97141	-1160.49939	185.35655	230.5141	-1146.28882	211.50479	61.93264	-1099.71008	176.57054	47.57238	-1050.3866	359.54877	37.14911	-1101.38196	75.96461	614.33569	-832.32709	73.47134	486.55426	-839.23004	-121.44688	306.01883	-851.4566	-256.54785	182.0656	-898.55249	-293.31458	193.23558	-948.73828	-191.43732	42.21091	-887.24719	54.33688	1689.79346	-1017.67255	NaN	NaN	NaN	NaN	NaN	NaN	NaN	NaN	NaN	NaN	NaN	NaN	NaN	NaN	NaN	NaN	NaN	NaN	NaN	NaN	NaN	NaN	NaN	NaN
95	0.94	166.44841	1649.98584	-1072.91357	158.59685	1637.85266	-941.46454	32.44818	1600.46313	-1082.06445	26.28455	1593.09973	-953.03522	23.83872	1440.4834	-1020.01819	-16.13825	1112.74854	-1008.68829	132.89859	1360.93799	-1021.30511	170.01424	1186.46204	-1024.60266	-50.16026	1274.25122	-931.85895	71.11841	1393.2843	-1181.39404	25.209	1196.52368	-1247.33557	-7.20115	1088.38647	-1253.66174	-19.13213	937.3725	-1270.45032	8.31047	812.92938	-1220.82031	-47.82224	821.95264	-1264.19836	-31.71486	732.09351	-1255.94727	92.87209	1397.89929	-860.28308	69.2963	1200.92761	-767.49829	89.48474	1081.3949	-753.43268	136.80661	971.48444	-738.30231	235.19592	860.76288	-775.66052	185.07248	842.92719	-735.55957	245.35062	785.90387	-733.54022	172.9893	960.84314	-1115.3092	155.30418	953.38599	-898.12146	11.35732	982.06268	-1096.60083	5.63929	975.36273	-929.93884	150.87743	648.40918	-1187.02026	183.40739	488.77011	-1162.20398	186.2847	230.41336	-1146.72412	211.65598	61.91907	-1099.60254	176.55479	47.68625	-1050.40332	359.75031	36.90417	-1101.16479	90.64038	615.19049	-832.64093	91.8872	487.46567	-838.59558	-103.44209	311.25894	-852.35822	-241.26941	191.33813	-900.78625	-276.27676	204.24434	-951.59229	-184.93044	46.43559	-887.66455	64.59939	1691.46948	-1019.28607	NaN	NaN	NaN	NaN	NaN	NaN	NaN	NaN	NaN	NaN	NaN	NaN	NaN	NaN	NaN	NaN	NaN	NaN	NaN	NaN	NaN	NaN	NaN	NaN
96	0.95	176.46298	1651.35852	-1074.3075	168.45876	1639.52612	-942.84277	42.50608	1601.92688	-1083.45886	36.19844	1594.77234	-954.42438	33.91783	1441.78333	-1021.48828	-5.69547	1114.29651	-1010.84515	143.15247	1362.58362	-1022.37952	180.60516	1188.09131	-1025.65308	-40.10442	1275.57971	-933.61951	81.89624	1395.27747	-1182.51965	38.50621	1198.14478	-1249.47717	7.68547	1089.69373	-1256.42371	-1.52215	938.45026	-1273.61206	27.9093	814.35742	-1224.31006	-27.985	822.51843	-1267.76147	-10.1612	732.93433	-1259.85059	102.10043	1399.47095	-861.73767	78.49798	1202.61243	-769.04108	97.07902	1082.54651	-755.86029	142.18382	971.51447	-740.82678	238.1834	858.11035	-778.02332	187.51563	841.70154	-737.78912	246.32791	782.81146	-736.06128	183.50677	961.96198	-1116.86316	164.63074	954.63	-899.57831	22.16296	983.79211	-1099.15723	15.27413	976.41565	-932.60138	157.86469	649.02448	-1188.31982	186.51953	488.5181	-1163.68921	187.01454	230.42271	-1147.22571	211.80824	61.92047	-1099.50281	176.60371	47.80284	-1050.31934	359.8793	36.60138	-1101.14856	104.78103	616.1123	-833.06268	110.1657	488.50476	-838.24615	-84.86788	316.24377	-852.85974	-225.06549	199.83609	-902.87891	-258.47815	214.1647	-954.62073	-177.4944	50.69609	-888.54932	74.65048	1693.27808	-1020.79321	NaN	NaN	NaN	NaN	NaN	NaN	NaN	NaN	NaN	NaN	NaN	NaN	NaN	NaN	NaN	NaN	NaN	NaN	NaN	NaN	NaN	NaN	NaN	NaN
